<svg width="226" height="36" viewBox="0 0 226 36" fill="none" xmlns="http://www.w3.org/2000/svg">
<rect width="104" height="36" rx="18" fill="black"/>
<path d="M19.912 22.488C20.3547 22.488 20.7493 22.4133 21.096 22.264C21.448 22.1147 21.744 21.9067 21.984 21.64C22.2293 21.3733 22.416 21.0533 22.544 20.68C22.672 20.3013 22.736 19.8827 22.736 19.424V12.48H24.6V19.424C24.6 20.1013 24.4907 20.728 24.272 21.304C24.0587 21.88 23.7493 22.3787 23.344 22.8C22.9387 23.216 22.4453 23.544 21.864 23.784C21.288 24.0187 20.6373 24.136 19.912 24.136C19.1867 24.136 18.5333 24.0187 17.952 23.784C17.376 23.544 16.8853 23.216 16.48 22.8C16.0747 22.3787 15.7627 21.88 15.544 21.304C15.3307 20.728 15.224 20.1013 15.224 19.424V12.48H17.096V19.416C17.096 19.8747 17.16 20.2933 17.288 20.672C17.416 21.0453 17.6 21.368 17.84 21.64C18.08 21.9067 18.3733 22.1147 18.72 22.264C19.072 22.4133 19.4693 22.488 19.912 22.488ZM36.2921 24H34.4281C34.3001 24 34.1961 23.9653 34.1161 23.896C34.0361 23.8267 33.9721 23.7493 33.9241 23.664L31.0601 19.048C31.0388 19.112 31.0148 19.1733 30.9881 19.232C30.9668 19.2907 30.9401 19.3467 30.9081 19.4L28.1401 23.664C28.0815 23.7493 28.0148 23.8267 27.9401 23.896C27.8708 23.9653 27.7775 24 27.6601 24H25.9161L29.8041 18.08L26.0761 12.48H27.9321C28.0655 12.48 28.1615 12.5013 28.2201 12.544C28.2841 12.5813 28.3401 12.64 28.3881 12.72L31.1881 17.12C31.2148 17.056 31.2415 16.992 31.2681 16.928C31.2948 16.864 31.3295 16.7973 31.3721 16.728L33.9801 12.752C34.0335 12.6613 34.0921 12.5947 34.1561 12.552C34.2201 12.504 34.2975 12.48 34.3881 12.48H36.1721L32.4121 18L36.2921 24ZM51.855 18.24C51.855 19.0933 51.7163 19.8747 51.439 20.584C51.1617 21.288 50.7697 21.8933 50.263 22.4C49.7617 22.9067 49.1563 23.3013 48.447 23.584C47.743 23.8613 46.959 24 46.095 24H41.743V12.48H46.095C46.959 12.48 47.743 12.6213 48.447 12.904C49.1563 13.1813 49.7617 13.5733 50.263 14.08C50.7697 14.5867 51.1617 15.1947 51.439 15.904C51.7163 16.608 51.855 17.3867 51.855 18.24ZM49.943 18.24C49.943 17.5787 49.8523 16.984 49.671 16.456C49.495 15.928 49.239 15.4827 48.903 15.12C48.5723 14.7573 48.1697 14.48 47.695 14.288C47.2203 14.0907 46.687 13.992 46.095 13.992H43.623V22.488H46.095C46.687 22.488 47.2203 22.392 47.695 22.2C48.1697 22.008 48.5723 21.7307 48.903 21.368C49.239 21 49.495 20.5547 49.671 20.032C49.8523 19.504 49.943 18.9067 49.943 18.24ZM58.8375 19C58.8375 18.712 58.7948 18.4453 58.7095 18.2C58.6295 17.9493 58.5095 17.7333 58.3495 17.552C58.1895 17.3653 57.9895 17.2213 57.7495 17.12C57.5148 17.0133 57.2428 16.96 56.9335 16.96C56.3095 16.96 55.8188 17.1387 55.4615 17.496C55.1042 17.8533 54.8775 18.3547 54.7815 19H58.8375ZM54.7335 20.056C54.7548 20.52 54.8268 20.9227 54.9495 21.264C55.0722 21.6 55.2348 21.88 55.4375 22.104C55.6455 22.328 55.8908 22.496 56.1735 22.608C56.4615 22.7147 56.7815 22.768 57.1335 22.768C57.4695 22.768 57.7602 22.7307 58.0055 22.656C58.2508 22.576 58.4642 22.4907 58.6455 22.4C58.8268 22.304 58.9815 22.2187 59.1095 22.144C59.2375 22.064 59.3548 22.024 59.4615 22.024C59.6002 22.024 59.7068 22.0773 59.7815 22.184L60.2695 22.816C60.0668 23.056 59.8375 23.2587 59.5815 23.424C59.3255 23.5893 59.0535 23.7253 58.7655 23.832C58.4775 23.9333 58.1815 24.0053 57.8775 24.048C57.5735 24.096 57.2775 24.12 56.9895 24.12C56.4242 24.12 55.8988 24.0267 55.4135 23.84C54.9335 23.648 54.5148 23.368 54.1575 23C53.8055 22.632 53.5282 22.176 53.3255 21.632C53.1282 21.088 53.0295 20.4613 53.0295 19.752C53.0295 19.1867 53.1175 18.6587 53.2935 18.168C53.4748 17.6773 53.7308 17.2507 54.0615 16.888C54.3975 16.5253 54.8028 16.24 55.2775 16.032C55.7575 15.8187 56.2988 15.712 56.9015 15.712C57.4028 15.712 57.8668 15.7947 58.2935 15.96C58.7202 16.12 59.0882 16.3573 59.3975 16.672C59.7068 16.9867 59.9468 17.3733 60.1175 17.832C60.2935 18.2853 60.3815 18.8027 60.3815 19.384C60.3815 19.6507 60.3522 19.8293 60.2935 19.92C60.2348 20.0107 60.1282 20.056 59.9735 20.056H54.7335ZM66.8575 17.32C66.8148 17.3947 66.7668 17.448 66.7135 17.48C66.6602 17.512 66.5935 17.528 66.5135 17.528C66.4228 17.528 66.3242 17.5013 66.2175 17.448C66.1108 17.3893 65.9855 17.3253 65.8415 17.256C65.6975 17.1867 65.5268 17.1253 65.3295 17.072C65.1375 17.0133 64.9108 16.984 64.6495 16.984C64.4362 16.984 64.2415 17.0107 64.0655 17.064C63.8948 17.112 63.7482 17.184 63.6255 17.28C63.5082 17.3707 63.4175 17.48 63.3535 17.608C63.2895 17.7307 63.2575 17.864 63.2575 18.008C63.2575 18.2 63.3162 18.36 63.4335 18.488C63.5508 18.616 63.7055 18.728 63.8975 18.824C64.0895 18.9147 64.3082 18.9973 64.5535 19.072C64.7988 19.1467 65.0495 19.2267 65.3055 19.312C65.5615 19.3973 65.8122 19.496 66.0575 19.608C66.3028 19.72 66.5215 19.8587 66.7135 20.024C66.9055 20.184 67.0602 20.3813 67.1775 20.616C67.2948 20.8453 67.3535 21.1253 67.3535 21.456C67.3535 21.84 67.2842 22.1947 67.1455 22.52C67.0068 22.8453 66.8042 23.128 66.5375 23.368C66.2708 23.608 65.9375 23.7947 65.5375 23.928C65.1428 24.0613 64.6895 24.128 64.1775 24.128C63.8948 24.128 63.6202 24.1013 63.3535 24.048C63.0922 24 62.8415 23.9333 62.6015 23.848C62.3668 23.7573 62.1455 23.6507 61.9375 23.528C61.7348 23.4053 61.5535 23.272 61.3935 23.128L61.7935 22.472C61.8415 22.392 61.9002 22.3307 61.9695 22.288C62.0442 22.24 62.1348 22.216 62.2415 22.216C62.3535 22.216 62.4628 22.2533 62.5695 22.328C62.6815 22.3973 62.8095 22.4747 62.9535 22.56C63.1028 22.6453 63.2815 22.7253 63.4895 22.8C63.6975 22.8693 63.9562 22.904 64.2655 22.904C64.5215 22.904 64.7428 22.8747 64.9295 22.816C65.1162 22.752 65.2708 22.6667 65.3935 22.56C65.5162 22.4533 65.6068 22.3333 65.6655 22.2C65.7242 22.0613 65.7535 21.9147 65.7535 21.76C65.7535 21.552 65.6948 21.3813 65.5775 21.248C65.4602 21.1147 65.3028 21 65.1055 20.904C64.9135 20.808 64.6922 20.7227 64.4415 20.648C64.1962 20.5733 63.9455 20.4933 63.6895 20.408C63.4335 20.3227 63.1802 20.224 62.9295 20.112C62.6842 20 62.4628 19.8587 62.2655 19.688C62.0735 19.512 61.9188 19.3013 61.8015 19.056C61.6842 18.8053 61.6255 18.5013 61.6255 18.144C61.6255 17.8187 61.6895 17.5093 61.8175 17.216C61.9508 16.9227 62.1428 16.664 62.3935 16.44C62.6495 16.216 62.9615 16.04 63.3295 15.912C63.7028 15.7787 64.1322 15.712 64.6175 15.712C65.1668 15.712 65.6655 15.8 66.1135 15.976C66.5615 16.152 66.9375 16.392 67.2415 16.696L66.8575 17.32ZM70.7619 15.84V24H69.0419V15.84H70.7619ZM71.0499 13.376C71.0499 13.5307 71.0179 13.6773 70.9539 13.816C70.8952 13.9547 70.8125 14.0773 70.7059 14.184C70.5992 14.2853 70.4739 14.368 70.3299 14.432C70.1912 14.4907 70.0419 14.52 69.8819 14.52C69.7272 14.52 69.5805 14.4907 69.4419 14.432C69.3085 14.368 69.1912 14.2853 69.0899 14.184C68.9885 14.0773 68.9059 13.9547 68.8419 13.816C68.7832 13.6773 68.7539 13.5307 68.7539 13.376C68.7539 13.216 68.7832 13.0667 68.8419 12.928C68.9059 12.7893 68.9885 12.6693 69.0899 12.568C69.1912 12.4613 69.3085 12.3787 69.4419 12.32C69.5805 12.256 69.7272 12.224 69.8819 12.224C70.0419 12.224 70.1912 12.256 70.3299 12.32C70.4739 12.3787 70.5992 12.4613 70.7059 12.568C70.8125 12.6693 70.8952 12.7893 70.9539 12.928C71.0179 13.0667 71.0499 13.216 71.0499 13.376ZM75.835 19.848C76.3683 19.848 76.7683 19.712 77.035 19.44C77.3017 19.168 77.435 18.8133 77.435 18.376C77.435 17.928 77.3017 17.5733 77.035 17.312C76.7683 17.0507 76.3683 16.92 75.835 16.92C75.307 16.92 74.907 17.0507 74.635 17.312C74.3683 17.5733 74.235 17.928 74.235 18.376C74.235 18.5893 74.2697 18.7867 74.339 18.968C74.4083 19.1493 74.5097 19.3067 74.643 19.44C74.7763 19.568 74.9417 19.6693 75.139 19.744C75.3417 19.8133 75.5737 19.848 75.835 19.848ZM78.227 24.4C78.227 24.2187 78.1737 24.0747 78.067 23.968C77.9657 23.856 77.827 23.7707 77.651 23.712C77.475 23.648 77.2697 23.6027 77.035 23.576C76.8003 23.544 76.5497 23.5227 76.283 23.512C76.0217 23.496 75.7523 23.4827 75.475 23.472C75.203 23.456 74.939 23.4293 74.683 23.392C74.427 23.5253 74.2163 23.6853 74.051 23.872C73.891 24.0587 73.811 24.2747 73.811 24.52C73.811 24.68 73.851 24.8293 73.931 24.968C74.0163 25.1067 74.1443 25.2267 74.315 25.328C74.491 25.4293 74.7123 25.5093 74.979 25.568C75.251 25.6267 75.5763 25.656 75.955 25.656C76.7123 25.656 77.2803 25.5387 77.659 25.304C78.0377 25.0693 78.227 24.768 78.227 24.4ZM79.955 16.136V16.776C79.955 16.9893 79.827 17.12 79.571 17.168L78.755 17.304C78.8937 17.6133 78.963 17.9573 78.963 18.336C78.963 18.736 78.883 19.0987 78.723 19.424C78.5683 19.7493 78.3523 20.0267 78.075 20.256C77.7977 20.4853 77.467 20.6613 77.083 20.784C76.699 20.9067 76.283 20.968 75.835 20.968C75.6643 20.968 75.4963 20.96 75.331 20.944C75.171 20.9227 75.0137 20.896 74.859 20.864C74.7043 20.9547 74.5897 21.0507 74.515 21.152C74.4403 21.2533 74.403 21.3573 74.403 21.464C74.403 21.64 74.4803 21.7707 74.635 21.856C74.7897 21.9413 74.9923 22.0027 75.243 22.04C75.499 22.0773 75.7897 22.1013 76.115 22.112C76.4403 22.1227 76.771 22.1413 77.107 22.168C77.443 22.1947 77.7737 22.24 78.099 22.304C78.4243 22.3627 78.7123 22.464 78.963 22.608C79.219 22.7467 79.4243 22.936 79.579 23.176C79.7337 23.416 79.811 23.728 79.811 24.112C79.811 24.464 79.723 24.808 79.547 25.144C79.371 25.48 79.115 25.7787 78.779 26.04C78.4483 26.3013 78.043 26.5093 77.563 26.664C77.083 26.824 76.5363 26.904 75.923 26.904C75.315 26.904 74.7843 26.8453 74.331 26.728C73.883 26.6107 73.507 26.4507 73.203 26.248C72.9043 26.0507 72.6803 25.8213 72.531 25.56C72.387 25.2987 72.315 25.0267 72.315 24.744C72.315 24.36 72.435 24.032 72.675 23.76C72.9203 23.488 73.251 23.2747 73.667 23.12C73.443 23.0133 73.2617 22.8667 73.123 22.68C72.9897 22.4933 72.923 22.248 72.923 21.944C72.923 21.704 73.011 21.4533 73.187 21.192C73.363 20.9307 73.627 20.7093 73.979 20.528C73.5737 20.304 73.2537 20.008 73.019 19.64C72.7843 19.2667 72.667 18.832 72.667 18.336C72.667 17.9307 72.7443 17.5653 72.899 17.24C73.059 16.9147 73.2803 16.6373 73.563 16.408C73.8457 16.1787 74.179 16.0027 74.563 15.88C74.9523 15.7573 75.3763 15.696 75.835 15.696C76.539 15.696 77.1523 15.8427 77.675 16.136H79.955ZM82.9216 16.92C83.0976 16.7387 83.279 16.576 83.4656 16.432C83.6576 16.2827 83.8603 16.1547 84.0736 16.048C84.287 15.9413 84.5136 15.8587 84.7536 15.8C84.9936 15.7413 85.255 15.712 85.5376 15.712C85.9856 15.712 86.3776 15.7867 86.7136 15.936C87.055 16.0853 87.3403 16.296 87.5696 16.568C87.8043 16.84 87.9803 17.168 88.0976 17.552C88.215 17.9307 88.2736 18.3493 88.2736 18.808V24H86.5616V18.808C86.5616 18.2587 86.4336 17.832 86.1776 17.528C85.927 17.224 85.543 17.072 85.0256 17.072C84.6416 17.072 84.2843 17.16 83.9536 17.336C83.6283 17.512 83.3216 17.752 83.0336 18.056V24H81.3136V15.84H82.3536C82.5883 15.84 82.7376 15.9493 82.8016 16.168L82.9216 16.92Z" fill="white"/>
<rect x="114" width="112" height="36" rx="18" fill="black"/>
<path d="M132.952 18.352C133.368 18.352 133.733 18.2987 134.048 18.192C134.368 18.0853 134.632 17.936 134.84 17.744C135.053 17.5467 135.213 17.3093 135.32 17.032C135.427 16.7547 135.48 16.4453 135.48 16.104C135.48 15.768 135.427 15.4667 135.32 15.2C135.219 14.9333 135.064 14.7067 134.856 14.52C134.648 14.3333 134.384 14.192 134.064 14.096C133.749 13.9947 133.379 13.944 132.952 13.944H131.24V18.352H132.952ZM132.952 12.48C133.704 12.48 134.355 12.568 134.904 12.744C135.459 12.92 135.915 13.168 136.272 13.488C136.635 13.8027 136.904 14.184 137.08 14.632C137.256 15.0747 137.344 15.5653 137.344 16.104C137.344 16.6533 137.251 17.1573 137.064 17.616C136.877 18.0693 136.6 18.4613 136.232 18.792C135.864 19.1173 135.405 19.3733 134.856 19.56C134.312 19.7413 133.677 19.832 132.952 19.832H131.24V24H129.368V12.48H132.952ZM140.297 17.352C140.553 16.8347 140.862 16.4293 141.225 16.136C141.588 15.8373 142.022 15.688 142.529 15.688C142.705 15.688 142.87 15.7093 143.025 15.752C143.18 15.7893 143.318 15.848 143.441 15.928L143.321 17.224C143.3 17.3147 143.265 17.3787 143.217 17.416C143.174 17.448 143.116 17.464 143.041 17.464C142.961 17.464 142.846 17.4507 142.697 17.424C142.548 17.392 142.39 17.376 142.225 17.376C141.985 17.376 141.772 17.4107 141.585 17.48C141.404 17.5493 141.238 17.6507 141.089 17.784C140.945 17.9173 140.817 18.08 140.705 18.272C140.593 18.464 140.489 18.6827 140.393 18.928V24H138.673V15.84H139.673C139.854 15.84 139.98 15.8747 140.049 15.944C140.118 16.008 140.166 16.1227 140.193 16.288L140.297 17.352ZM147.826 15.712C148.429 15.712 148.973 15.8107 149.458 16.008C149.949 16.2053 150.365 16.4853 150.706 16.848C151.053 17.2107 151.319 17.6507 151.506 18.168C151.693 18.6853 151.786 19.2667 151.786 19.912C151.786 20.5573 151.693 21.1387 151.506 21.656C151.319 22.1733 151.053 22.616 150.706 22.984C150.365 23.3467 149.949 23.6267 149.458 23.824C148.973 24.0213 148.429 24.12 147.826 24.12C147.218 24.12 146.669 24.0213 146.178 23.824C145.693 23.6267 145.277 23.3467 144.93 22.984C144.583 22.616 144.317 22.1733 144.13 21.656C143.943 21.1387 143.85 20.5573 143.85 19.912C143.85 19.2667 143.943 18.6853 144.13 18.168C144.317 17.6507 144.583 17.2107 144.93 16.848C145.277 16.4853 145.693 16.2053 146.178 16.008C146.669 15.8107 147.218 15.712 147.826 15.712ZM147.826 22.776C148.562 22.776 149.109 22.5307 149.466 22.04C149.829 21.544 150.01 20.8373 150.01 19.92C150.01 19.0027 149.829 18.296 149.466 17.8C149.109 17.2987 148.562 17.048 147.826 17.048C147.079 17.048 146.525 17.2987 146.162 17.8C145.799 18.296 145.618 19.0027 145.618 19.92C145.618 20.8373 145.799 21.544 146.162 22.04C146.525 22.5307 147.079 22.776 147.826 22.776ZM155.898 24.128C155.221 24.128 154.698 23.9387 154.33 23.56C153.968 23.176 153.786 22.6373 153.786 21.944V17.192H152.89C152.794 17.192 152.712 17.1627 152.642 17.104C152.573 17.04 152.538 16.9467 152.538 16.824V16.128L153.858 15.936L154.234 13.576C154.261 13.4853 154.306 13.4133 154.37 13.36C154.434 13.3013 154.52 13.272 154.626 13.272H155.506V15.952H157.77V17.192H155.506V21.824C155.506 22.1173 155.578 22.3413 155.722 22.496C155.866 22.6507 156.058 22.728 156.298 22.728C156.432 22.728 156.546 22.712 156.642 22.68C156.738 22.6427 156.821 22.6053 156.89 22.568C156.96 22.5253 157.018 22.488 157.066 22.456C157.12 22.4187 157.17 22.4 157.218 22.4C157.314 22.4 157.392 22.4533 157.45 22.56L157.962 23.4C157.696 23.6347 157.381 23.816 157.018 23.944C156.656 24.0667 156.282 24.128 155.898 24.128ZM162.592 15.712C163.194 15.712 163.738 15.8107 164.224 16.008C164.714 16.2053 165.13 16.4853 165.472 16.848C165.818 17.2107 166.085 17.6507 166.272 18.168C166.458 18.6853 166.552 19.2667 166.552 19.912C166.552 20.5573 166.458 21.1387 166.272 21.656C166.085 22.1733 165.818 22.616 165.472 22.984C165.13 23.3467 164.714 23.6267 164.224 23.824C163.738 24.0213 163.194 24.12 162.592 24.12C161.984 24.12 161.434 24.0213 160.944 23.824C160.458 23.6267 160.042 23.3467 159.696 22.984C159.349 22.616 159.082 22.1733 158.896 21.656C158.709 21.1387 158.616 20.5573 158.616 19.912C158.616 19.2667 158.709 18.6853 158.896 18.168C159.082 17.6507 159.349 17.2107 159.696 16.848C160.042 16.4853 160.458 16.2053 160.944 16.008C161.434 15.8107 161.984 15.712 162.592 15.712ZM162.592 22.776C163.328 22.776 163.874 22.5307 164.232 22.04C164.594 21.544 164.776 20.8373 164.776 19.92C164.776 19.0027 164.594 18.296 164.232 17.8C163.874 17.2987 163.328 17.048 162.592 17.048C161.845 17.048 161.29 17.2987 160.928 17.8C160.565 18.296 160.384 19.0027 160.384 19.92C160.384 20.8373 160.565 21.544 160.928 22.04C161.29 22.5307 161.845 22.776 162.592 22.776ZM170.664 24.128C169.987 24.128 169.464 23.9387 169.096 23.56C168.733 23.176 168.552 22.6373 168.552 21.944V17.192H167.656C167.56 17.192 167.477 17.1627 167.408 17.104C167.339 17.04 167.304 16.9467 167.304 16.824V16.128L168.624 15.936L169 13.576C169.027 13.4853 169.072 13.4133 169.136 13.36C169.2 13.3013 169.285 13.272 169.392 13.272H170.272V15.952H172.536V17.192H170.272V21.824C170.272 22.1173 170.344 22.3413 170.488 22.496C170.632 22.6507 170.824 22.728 171.064 22.728C171.197 22.728 171.312 22.712 171.408 22.68C171.504 22.6427 171.587 22.6053 171.656 22.568C171.725 22.5253 171.784 22.488 171.832 22.456C171.885 22.4187 171.936 22.4 171.984 22.4C172.08 22.4 172.157 22.4533 172.216 22.56L172.728 23.4C172.461 23.6347 172.147 23.816 171.784 23.944C171.421 24.0667 171.048 24.128 170.664 24.128ZM181.132 15.84L176.636 26.32C176.577 26.4427 176.505 26.5387 176.42 26.608C176.34 26.6773 176.214 26.712 176.044 26.712H174.772L176.276 23.448L172.948 15.84H174.444C174.588 15.84 174.697 15.8747 174.772 15.944C174.852 16.008 174.91 16.0853 174.948 16.176L176.892 20.808C176.94 20.9413 176.982 21.0747 177.02 21.208C177.062 21.336 177.102 21.4693 177.14 21.608C177.182 21.4693 177.225 21.3333 177.268 21.2C177.31 21.0667 177.358 20.9333 177.412 20.8L179.276 16.176C179.313 16.08 179.374 16 179.46 15.936C179.55 15.872 179.649 15.84 179.756 15.84H181.132ZM183.971 21.952C184.211 22.2613 184.472 22.48 184.755 22.608C185.043 22.7307 185.36 22.792 185.707 22.792C186.379 22.792 186.902 22.5467 187.275 22.056C187.654 21.5653 187.843 20.8347 187.843 19.864C187.843 19.3627 187.8 18.936 187.715 18.584C187.63 18.2267 187.507 17.936 187.347 17.712C187.187 17.488 186.992 17.3253 186.763 17.224C186.534 17.1227 186.275 17.072 185.987 17.072C185.55 17.072 185.171 17.168 184.851 17.36C184.536 17.5467 184.243 17.816 183.971 18.168V21.952ZM183.883 17.024C184.224 16.624 184.611 16.3013 185.043 16.056C185.48 15.8107 185.987 15.688 186.563 15.688C187.022 15.688 187.438 15.7813 187.811 15.968C188.184 16.1493 188.504 16.416 188.771 16.768C189.038 17.12 189.243 17.5573 189.387 18.08C189.536 18.5973 189.611 19.192 189.611 19.864C189.611 20.4667 189.528 21.0293 189.363 21.552C189.203 22.0693 188.971 22.52 188.667 22.904C188.363 23.2827 187.995 23.5813 187.563 23.8C187.131 24.0133 186.643 24.12 186.099 24.12C185.619 24.12 185.211 24.0427 184.875 23.888C184.544 23.7333 184.243 23.52 183.971 23.248V26.712H182.251V15.84H183.291C183.526 15.84 183.675 15.9493 183.739 16.168L183.883 17.024ZM193.074 15.84V24H191.354V15.84H193.074ZM193.362 13.376C193.362 13.5307 193.33 13.6773 193.266 13.816C193.208 13.9547 193.125 14.0773 193.018 14.184C192.912 14.2853 192.786 14.368 192.642 14.432C192.504 14.4907 192.354 14.52 192.194 14.52C192.04 14.52 191.893 14.4907 191.754 14.432C191.621 14.368 191.504 14.2853 191.402 14.184C191.301 14.0773 191.218 13.9547 191.154 13.816C191.096 13.6773 191.066 13.5307 191.066 13.376C191.066 13.216 191.096 13.0667 191.154 12.928C191.218 12.7893 191.301 12.6693 191.402 12.568C191.504 12.4613 191.621 12.3787 191.754 12.32C191.893 12.256 192.04 12.224 192.194 12.224C192.354 12.224 192.504 12.256 192.642 12.32C192.786 12.3787 192.912 12.4613 193.018 12.568C193.125 12.6693 193.208 12.7893 193.266 12.928C193.33 13.0667 193.362 13.216 193.362 13.376ZM196.844 16.92C197.02 16.7387 197.201 16.576 197.388 16.432C197.58 16.2827 197.782 16.1547 197.996 16.048C198.209 15.9413 198.436 15.8587 198.676 15.8C198.916 15.7413 199.177 15.712 199.46 15.712C199.908 15.712 200.3 15.7867 200.636 15.936C200.977 16.0853 201.262 16.296 201.492 16.568C201.726 16.84 201.902 17.168 202.02 17.552C202.137 17.9307 202.196 18.3493 202.196 18.808V24H200.484V18.808C200.484 18.2587 200.356 17.832 200.1 17.528C199.849 17.224 199.465 17.072 198.948 17.072C198.564 17.072 198.206 17.16 197.876 17.336C197.55 17.512 197.244 17.752 196.956 18.056V24H195.236V15.84H196.276C196.51 15.84 196.66 15.9493 196.724 16.168L196.844 16.92ZM207.116 19.848C207.65 19.848 208.05 19.712 208.316 19.44C208.583 19.168 208.716 18.8133 208.716 18.376C208.716 17.928 208.583 17.5733 208.316 17.312C208.05 17.0507 207.65 16.92 207.116 16.92C206.588 16.92 206.188 17.0507 205.916 17.312C205.65 17.5733 205.516 17.928 205.516 18.376C205.516 18.5893 205.551 18.7867 205.62 18.968C205.69 19.1493 205.791 19.3067 205.924 19.44C206.058 19.568 206.223 19.6693 206.42 19.744C206.623 19.8133 206.855 19.848 207.116 19.848ZM209.508 24.4C209.508 24.2187 209.455 24.0747 209.348 23.968C209.247 23.856 209.108 23.7707 208.932 23.712C208.756 23.648 208.551 23.6027 208.316 23.576C208.082 23.544 207.831 23.5227 207.564 23.512C207.303 23.496 207.034 23.4827 206.756 23.472C206.484 23.456 206.22 23.4293 205.964 23.392C205.708 23.5253 205.498 23.6853 205.332 23.872C205.172 24.0587 205.092 24.2747 205.092 24.52C205.092 24.68 205.132 24.8293 205.212 24.968C205.298 25.1067 205.426 25.2267 205.596 25.328C205.772 25.4293 205.994 25.5093 206.26 25.568C206.532 25.6267 206.858 25.656 207.236 25.656C207.994 25.656 208.562 25.5387 208.94 25.304C209.319 25.0693 209.508 24.768 209.508 24.4ZM211.236 16.136V16.776C211.236 16.9893 211.108 17.12 210.852 17.168L210.036 17.304C210.175 17.6133 210.244 17.9573 210.244 18.336C210.244 18.736 210.164 19.0987 210.004 19.424C209.85 19.7493 209.634 20.0267 209.356 20.256C209.079 20.4853 208.748 20.6613 208.364 20.784C207.98 20.9067 207.564 20.968 207.116 20.968C206.946 20.968 206.778 20.96 206.612 20.944C206.452 20.9227 206.295 20.896 206.14 20.864C205.986 20.9547 205.871 21.0507 205.796 21.152C205.722 21.2533 205.684 21.3573 205.684 21.464C205.684 21.64 205.762 21.7707 205.916 21.856C206.071 21.9413 206.274 22.0027 206.524 22.04C206.78 22.0773 207.071 22.1013 207.396 22.112C207.722 22.1227 208.052 22.1413 208.388 22.168C208.724 22.1947 209.055 22.24 209.38 22.304C209.706 22.3627 209.994 22.464 210.244 22.608C210.5 22.7467 210.706 22.936 210.86 23.176C211.015 23.416 211.092 23.728 211.092 24.112C211.092 24.464 211.004 24.808 210.828 25.144C210.652 25.48 210.396 25.7787 210.06 26.04C209.73 26.3013 209.324 26.5093 208.844 26.664C208.364 26.824 207.818 26.904 207.204 26.904C206.596 26.904 206.066 26.8453 205.612 26.728C205.164 26.6107 204.788 26.4507 204.484 26.248C204.186 26.0507 203.962 25.8213 203.812 25.56C203.668 25.2987 203.596 25.0267 203.596 24.744C203.596 24.36 203.716 24.032 203.956 23.76C204.202 23.488 204.532 23.2747 204.948 23.12C204.724 23.0133 204.543 22.8667 204.404 22.68C204.271 22.4933 204.204 22.248 204.204 21.944C204.204 21.704 204.292 21.4533 204.468 21.192C204.644 20.9307 204.908 20.7093 205.26 20.528C204.855 20.304 204.535 20.008 204.3 19.64C204.066 19.2667 203.948 18.832 203.948 18.336C203.948 17.9307 204.026 17.5653 204.18 17.24C204.34 16.9147 204.562 16.6373 204.844 16.408C205.127 16.1787 205.46 16.0027 205.844 15.88C206.234 15.7573 206.658 15.696 207.116 15.696C207.82 15.696 208.434 15.8427 208.956 16.136H211.236Z" fill="white"/>
</svg>
