<svg width="165" height="34" viewBox="0 0 165 34" fill="none" xmlns="http://www.w3.org/2000/svg">
<rect opacity="0.2" x="0.5" y="0.5" width="33" height="33" fill="#D28A8A" stroke="#D28A8A"/>
<path d="M13.84 10.64H17.88V11.12L16.48 11.6V24H15.12L6.22 13.04V23.02L7.9 23.52V24H3.9V23.52L5.36 23.02V11.3L3.62 11.12V10.64H7.38L15.38 20.6V11.58L13.84 11.12V10.64ZM33.3255 24H27.4455V23.52L29.0655 23.34L27.2255 18.74H22.7255L21.1255 23L22.9055 23.52V24H18.7255V23.52L20.2455 23L25.0855 10.64H26.4855L31.7855 23.34L33.3255 23.52V24ZM26.9255 18L24.9655 13.14L23.0055 18H26.9255ZM48.3564 17.3C48.3564 21.7667 45.5831 24 40.0364 24H33.7764V23.52L35.4964 23.32V11.34L33.7764 11.1V10.58C34.3897 10.62 35.1031 10.64 35.9164 10.64H37.8364L40.3164 10.56C41.5297 10.56 42.5897 10.66 43.4964 10.86C44.4164 11.06 45.2564 11.4 46.0164 11.88C47.5764 12.8667 48.3564 14.6733 48.3564 17.3ZM45.3364 17.32C45.3364 15.0133 44.9031 13.4133 44.0364 12.52C43.7564 12.2133 43.4964 11.9867 43.2564 11.84C43.0164 11.68 42.7164 11.56 42.3564 11.48C41.8631 11.36 41.2831 11.2867 40.6164 11.26H40.3164C39.3431 11.26 38.6297 11.2933 38.1764 11.36V23.3L40.0364 23.36C41.3031 23.3067 42.2431 23.1333 42.8564 22.84C44.5097 22.0533 45.3364 20.2133 45.3364 17.32ZM58.9791 24H52.8391V23.52L54.5791 23.34V18.26L50.0191 11.3L48.4991 11.12V10.64H54.4991V11.12L52.9591 11.3L56.7591 17.22L60.0191 11.58L58.5191 11.12V10.64H62.5791V11.12L61.0591 11.6L57.2391 18.1V23.34L58.9791 23.52V24ZM75.9122 24H70.0322V23.52L71.6522 23.34L69.8122 18.74H65.3122L63.7122 23L65.4922 23.52V24H61.3122V23.52L62.8322 23L67.6722 10.64H69.0722L74.3722 23.34L75.9122 23.52V24ZM69.5122 18L67.5522 13.14L65.5922 18H69.5122ZM93.8216 24H87.9416V23.52L89.5616 23.34L87.7216 18.74H83.2216L81.6216 23L83.4016 23.52V24H79.2216V23.52L80.7416 23L85.5816 10.64H86.9816L92.2816 23.34L93.8216 23.52V24ZM87.4216 18L85.4616 13.14L83.5016 18H87.4216ZM105.645 19.32C105.645 20.32 105.505 21.1267 105.225 21.74C104.945 22.34 104.632 22.8 104.285 23.12C103.952 23.44 103.492 23.7067 102.905 23.92C102.318 24.1333 101.632 24.24 100.845 24.24C98.9252 24.24 97.4918 23.8733 96.5452 23.14C95.6118 22.3933 95.1452 21.2133 95.1452 19.6V11.3L93.4652 11.12V10.64H99.5452V11.12L97.8052 11.3V19.2C97.8052 20.6933 98.0652 21.7933 98.5852 22.5C99.1052 23.1933 99.9652 23.54 101.165 23.54C102.365 23.54 103.252 23.2133 103.825 22.56C104.398 21.8933 104.685 20.7533 104.685 19.14V11.42L103.205 11.22V10.64H107.265V11.26L105.645 11.42V19.32ZM123.354 17.3C123.354 21.7667 120.581 24 115.034 24H108.774V23.52L110.494 23.32V11.34L108.774 11.1V10.58C109.387 10.62 110.101 10.64 110.914 10.64H112.834L115.314 10.56C116.527 10.56 117.587 10.66 118.494 10.86C119.414 11.06 120.254 11.4 121.014 11.88C122.574 12.8667 123.354 14.6733 123.354 17.3ZM120.334 17.32C120.334 15.0133 119.901 13.4133 119.034 12.52C118.754 12.2133 118.494 11.9867 118.254 11.84C118.014 11.68 117.714 11.56 117.354 11.48C116.861 11.36 116.281 11.2867 115.614 11.26H115.314C114.341 11.26 113.627 11.2933 113.174 11.36V23.3L115.034 23.36C116.301 23.3067 117.241 23.1333 117.854 22.84C119.507 22.0533 120.334 20.2133 120.334 17.32ZM129.471 17.02H130.151C132.284 17.02 133.351 16 133.351 13.96C133.351 12.9733 133.144 12.26 132.731 11.82C132.317 11.3667 131.664 11.14 130.771 11.14C130.197 11.14 129.764 11.1667 129.471 11.22V17.02ZM129.131 10.6L131.371 10.54C134.544 10.54 136.131 11.68 136.131 13.96C136.131 14.9733 135.771 15.8 135.051 16.44C134.331 17.08 133.404 17.4 132.271 17.4H131.811C133.331 17.6 134.371 18.06 134.931 18.78C135.504 19.5 135.791 20.5933 135.791 22.06C135.791 22.9667 135.977 23.52 136.351 23.72C136.484 23.8 136.677 23.84 136.931 23.84C137.197 23.84 137.557 23.7333 138.011 23.52L138.031 24C137.311 24.3067 136.577 24.46 135.831 24.46C134.337 24.46 133.437 23.9 133.131 22.78C133.024 22.3133 132.971 21.7333 132.971 21.04C132.971 20.3333 132.924 19.7933 132.831 19.42C132.751 19.0333 132.624 18.72 132.451 18.48C132.064 17.8933 131.337 17.6 130.271 17.6H129.471V23.34L130.991 23.52V24H125.351V23.52L126.831 23.36V11.26L125.111 11.02V10.52C126.231 10.5733 127.237 10.6 128.131 10.6H129.131ZM138.91 24V23.52L140.65 23.34V11.3L138.91 11.12V10.64H149.11V13.48H148.47L147.69 11.36L143.31 11.3V16.68H147.19L147.81 15.2H148.37V18.92H147.79L147.19 17.4H143.31V23.36L148.29 23.3L149.33 21.02H149.97L149.73 24H138.91ZM160.695 24H154.555V23.52L156.295 23.34V18.26L151.735 11.3L150.215 11.12V10.64H156.215V11.12L154.675 11.3L158.475 17.22L161.735 11.58L160.235 11.12V10.64H164.295V11.12L162.775 11.6L158.955 18.1V23.34L160.695 23.52V24Z" fill="#373D43"/>
</svg>
