<svg width="325" height="36" viewBox="0 0 325 36" fill="none" xmlns="http://www.w3.org/2000/svg">
<rect width="119" height="36" rx="18" fill="black"/>
<path d="M19.912 22.488C20.3547 22.488 20.7493 22.4133 21.096 22.264C21.448 22.1147 21.744 21.9067 21.984 21.64C22.2293 21.3733 22.416 21.0533 22.544 20.68C22.672 20.3013 22.736 19.8827 22.736 19.424V12.48H24.6V19.424C24.6 20.1013 24.4907 20.728 24.272 21.304C24.0587 21.88 23.7493 22.3787 23.344 22.8C22.9387 23.216 22.4453 23.544 21.864 23.784C21.288 24.0187 20.6373 24.136 19.912 24.136C19.1867 24.136 18.5333 24.0187 17.952 23.784C17.376 23.544 16.8853 23.216 16.48 22.8C16.0747 22.3787 15.7627 21.88 15.544 21.304C15.3307 20.728 15.224 20.1013 15.224 19.424V12.48H17.096V19.416C17.096 19.8747 17.16 20.2933 17.288 20.672C17.416 21.0453 17.6 21.368 17.84 21.64C18.08 21.9067 18.3733 22.1147 18.72 22.264C19.072 22.4133 19.4693 22.488 19.912 22.488ZM36.2921 24H34.4281C34.3001 24 34.1961 23.9653 34.1161 23.896C34.0361 23.8267 33.9721 23.7493 33.9241 23.664L31.0601 19.048C31.0388 19.112 31.0148 19.1733 30.9881 19.232C30.9668 19.2907 30.9401 19.3467 30.9081 19.4L28.1401 23.664C28.0815 23.7493 28.0148 23.8267 27.9401 23.896C27.8708 23.9653 27.7775 24 27.6601 24H25.9161L29.8041 18.08L26.0761 12.48H27.9321C28.0655 12.48 28.1615 12.5013 28.2201 12.544C28.2841 12.5813 28.3401 12.64 28.3881 12.72L31.1881 17.12C31.2148 17.056 31.2415 16.992 31.2681 16.928C31.2948 16.864 31.3295 16.7973 31.3721 16.728L33.9801 12.752C34.0335 12.6613 34.0921 12.5947 34.1561 12.552C34.2201 12.504 34.2975 12.48 34.3881 12.48H36.1721L32.4121 18L36.2921 24ZM45.087 18C45.5137 18 45.887 17.9493 46.207 17.848C46.527 17.7413 46.7937 17.5947 47.007 17.408C47.2203 17.2213 47.3803 17 47.487 16.744C47.5937 16.4827 47.647 16.1947 47.647 15.88C47.647 15.2507 47.439 14.7707 47.023 14.44C46.607 14.1093 45.9777 13.944 45.135 13.944H43.615V18H45.087ZM50.511 24H48.839C48.5083 24 48.2683 23.872 48.119 23.616L45.431 19.736C45.3403 19.6027 45.2417 19.5067 45.135 19.448C45.0283 19.3893 44.8683 19.36 44.655 19.36H43.615V24H41.743V12.48H45.135C45.8923 12.48 46.543 12.5573 47.087 12.712C47.6363 12.8667 48.087 13.088 48.439 13.376C48.791 13.6587 49.0497 14 49.215 14.4C49.3857 14.8 49.471 15.2453 49.471 15.736C49.471 16.136 49.4097 16.5093 49.287 16.856C49.1697 17.2027 48.9963 17.5173 48.767 17.8C48.543 18.0827 48.2657 18.328 47.935 18.536C47.6043 18.744 47.2283 18.9067 46.807 19.024C47.0363 19.1627 47.2337 19.3573 47.399 19.608L50.511 24ZM56.4 19C56.4 18.712 56.3573 18.4453 56.272 18.2C56.192 17.9493 56.072 17.7333 55.912 17.552C55.752 17.3653 55.552 17.2213 55.312 17.12C55.0773 17.0133 54.8053 16.96 54.496 16.96C53.872 16.96 53.3813 17.1387 53.024 17.496C52.6667 17.8533 52.44 18.3547 52.344 19H56.4ZM52.296 20.056C52.3173 20.52 52.3893 20.9227 52.512 21.264C52.6347 21.6 52.7973 21.88 53 22.104C53.208 22.328 53.4533 22.496 53.736 22.608C54.024 22.7147 54.344 22.768 54.696 22.768C55.032 22.768 55.3227 22.7307 55.568 22.656C55.8133 22.576 56.0267 22.4907 56.208 22.4C56.3893 22.304 56.544 22.2187 56.672 22.144C56.8 22.064 56.9173 22.024 57.024 22.024C57.1627 22.024 57.2693 22.0773 57.344 22.184L57.832 22.816C57.6293 23.056 57.4 23.2587 57.144 23.424C56.888 23.5893 56.616 23.7253 56.328 23.832C56.04 23.9333 55.744 24.0053 55.44 24.048C55.136 24.096 54.84 24.12 54.552 24.12C53.9867 24.12 53.4613 24.0267 52.976 23.84C52.496 23.648 52.0773 23.368 51.72 23C51.368 22.632 51.0907 22.176 50.888 21.632C50.6907 21.088 50.592 20.4613 50.592 19.752C50.592 19.1867 50.68 18.6587 50.856 18.168C51.0373 17.6773 51.2933 17.2507 51.624 16.888C51.96 16.5253 52.3653 16.24 52.84 16.032C53.32 15.8187 53.8613 15.712 54.464 15.712C54.9653 15.712 55.4293 15.7947 55.856 15.96C56.2827 16.12 56.6507 16.3573 56.96 16.672C57.2693 16.9867 57.5093 17.3733 57.68 17.832C57.856 18.2853 57.944 18.8027 57.944 19.384C57.944 19.6507 57.9147 19.8293 57.856 19.92C57.7973 20.0107 57.6907 20.056 57.536 20.056H52.296ZM64.42 17.32C64.3773 17.3947 64.3293 17.448 64.276 17.48C64.2227 17.512 64.156 17.528 64.076 17.528C63.9853 17.528 63.8867 17.5013 63.78 17.448C63.6733 17.3893 63.548 17.3253 63.404 17.256C63.26 17.1867 63.0893 17.1253 62.892 17.072C62.7 17.0133 62.4733 16.984 62.212 16.984C61.9987 16.984 61.804 17.0107 61.628 17.064C61.4573 17.112 61.3107 17.184 61.188 17.28C61.0707 17.3707 60.98 17.48 60.916 17.608C60.852 17.7307 60.82 17.864 60.82 18.008C60.82 18.2 60.8787 18.36 60.996 18.488C61.1133 18.616 61.268 18.728 61.46 18.824C61.652 18.9147 61.8707 18.9973 62.116 19.072C62.3613 19.1467 62.612 19.2267 62.868 19.312C63.124 19.3973 63.3747 19.496 63.62 19.608C63.8653 19.72 64.084 19.8587 64.276 20.024C64.468 20.184 64.6227 20.3813 64.74 20.616C64.8573 20.8453 64.916 21.1253 64.916 21.456C64.916 21.84 64.8467 22.1947 64.708 22.52C64.5693 22.8453 64.3667 23.128 64.1 23.368C63.8333 23.608 63.5 23.7947 63.1 23.928C62.7053 24.0613 62.252 24.128 61.74 24.128C61.4573 24.128 61.1827 24.1013 60.916 24.048C60.6547 24 60.404 23.9333 60.164 23.848C59.9293 23.7573 59.708 23.6507 59.5 23.528C59.2973 23.4053 59.116 23.272 58.956 23.128L59.356 22.472C59.404 22.392 59.4627 22.3307 59.532 22.288C59.6067 22.24 59.6973 22.216 59.804 22.216C59.916 22.216 60.0253 22.2533 60.132 22.328C60.244 22.3973 60.372 22.4747 60.516 22.56C60.6653 22.6453 60.844 22.7253 61.052 22.8C61.26 22.8693 61.5187 22.904 61.828 22.904C62.084 22.904 62.3053 22.8747 62.492 22.816C62.6787 22.752 62.8333 22.6667 62.956 22.56C63.0787 22.4533 63.1693 22.3333 63.228 22.2C63.2867 22.0613 63.316 21.9147 63.316 21.76C63.316 21.552 63.2573 21.3813 63.14 21.248C63.0227 21.1147 62.8653 21 62.668 20.904C62.476 20.808 62.2547 20.7227 62.004 20.648C61.7587 20.5733 61.508 20.4933 61.252 20.408C60.996 20.3227 60.7427 20.224 60.492 20.112C60.2467 20 60.0253 19.8587 59.828 19.688C59.636 19.512 59.4813 19.3013 59.364 19.056C59.2467 18.8053 59.188 18.5013 59.188 18.144C59.188 17.8187 59.252 17.5093 59.38 17.216C59.5133 16.9227 59.7053 16.664 59.956 16.44C60.212 16.216 60.524 16.04 60.892 15.912C61.2653 15.7787 61.6947 15.712 62.18 15.712C62.7293 15.712 63.228 15.8 63.676 15.976C64.124 16.152 64.5 16.392 64.804 16.696L64.42 17.32ZM71.8844 19C71.8844 18.712 71.8417 18.4453 71.7564 18.2C71.6764 17.9493 71.5564 17.7333 71.3964 17.552C71.2364 17.3653 71.0364 17.2213 70.7964 17.12C70.5617 17.0133 70.2897 16.96 69.9804 16.96C69.3564 16.96 68.8657 17.1387 68.5084 17.496C68.151 17.8533 67.9244 18.3547 67.8284 19H71.8844ZM67.7804 20.056C67.8017 20.52 67.8737 20.9227 67.9964 21.264C68.119 21.6 68.2817 21.88 68.4844 22.104C68.6924 22.328 68.9377 22.496 69.2204 22.608C69.5084 22.7147 69.8284 22.768 70.1804 22.768C70.5164 22.768 70.807 22.7307 71.0524 22.656C71.2977 22.576 71.511 22.4907 71.6924 22.4C71.8737 22.304 72.0284 22.2187 72.1564 22.144C72.2844 22.064 72.4017 22.024 72.5084 22.024C72.647 22.024 72.7537 22.0773 72.8284 22.184L73.3164 22.816C73.1137 23.056 72.8844 23.2587 72.6284 23.424C72.3724 23.5893 72.1004 23.7253 71.8124 23.832C71.5244 23.9333 71.2284 24.0053 70.9244 24.048C70.6204 24.096 70.3244 24.12 70.0364 24.12C69.471 24.12 68.9457 24.0267 68.4604 23.84C67.9804 23.648 67.5617 23.368 67.2044 23C66.8524 22.632 66.575 22.176 66.3724 21.632C66.175 21.088 66.0764 20.4613 66.0764 19.752C66.0764 19.1867 66.1644 18.6587 66.3404 18.168C66.5217 17.6773 66.7777 17.2507 67.1084 16.888C67.4444 16.5253 67.8497 16.24 68.3244 16.032C68.8044 15.8187 69.3457 15.712 69.9484 15.712C70.4497 15.712 70.9137 15.7947 71.3404 15.96C71.767 16.12 72.135 16.3573 72.4444 16.672C72.7537 16.9867 72.9937 17.3733 73.1644 17.832C73.3404 18.2853 73.4284 18.8027 73.4284 19.384C73.4284 19.6507 73.399 19.8293 73.3404 19.92C73.2817 20.0107 73.175 20.056 73.0204 20.056H67.7804ZM79.3924 20.432C78.779 20.4533 78.2617 20.504 77.8404 20.584C77.419 20.6587 77.0777 20.7573 76.8164 20.88C76.555 20.9973 76.3657 21.1387 76.2484 21.304C76.1364 21.4693 76.0804 21.6507 76.0804 21.848C76.0804 22.04 76.1097 22.2053 76.1684 22.344C76.2324 22.4773 76.3177 22.5893 76.4244 22.68C76.5364 22.7653 76.6644 22.8293 76.8084 22.872C76.9577 22.9093 77.1204 22.928 77.2964 22.928C77.7444 22.928 78.1284 22.8453 78.4484 22.68C78.7737 22.5093 79.0884 22.264 79.3924 21.944V20.432ZM74.8324 16.976C75.755 16.1173 76.8537 15.688 78.1284 15.688C78.5977 15.688 79.0137 15.7653 79.3764 15.92C79.7444 16.0693 80.051 16.2827 80.2964 16.56C80.547 16.8373 80.7364 17.168 80.8644 17.552C80.9977 17.9307 81.0644 18.352 81.0644 18.816V24H80.2964C80.131 24 80.0057 23.976 79.9204 23.928C79.835 23.8747 79.763 23.7707 79.7044 23.616L79.5364 22.952C79.3284 23.1387 79.123 23.3067 78.9204 23.456C78.7177 23.6 78.507 23.7227 78.2884 23.824C78.075 23.9253 77.843 24 77.5924 24.048C77.347 24.1013 77.075 24.128 76.7764 24.128C76.4457 24.128 76.1364 24.0827 75.8484 23.992C75.5657 23.9013 75.3204 23.7653 75.1124 23.584C74.9044 23.3973 74.739 23.168 74.6164 22.896C74.499 22.624 74.4404 22.304 74.4404 21.936C74.4404 21.6213 74.523 21.3147 74.6884 21.016C74.859 20.7173 75.1364 20.4507 75.5204 20.216C75.9097 19.976 76.419 19.7787 77.0484 19.624C77.683 19.4693 78.4644 19.3813 79.3924 19.36V18.816C79.3924 18.2293 79.267 17.792 79.0164 17.504C78.7657 17.216 78.3977 17.072 77.9124 17.072C77.5817 17.072 77.3044 17.1147 77.0804 17.2C76.8564 17.28 76.6617 17.368 76.4964 17.464C76.331 17.56 76.1844 17.6507 76.0564 17.736C75.9284 17.816 75.7924 17.856 75.6484 17.856C75.531 17.856 75.4297 17.8267 75.3444 17.768C75.2644 17.704 75.1977 17.6267 75.1444 17.536L74.8324 16.976ZM84.7033 17.352C84.9593 16.8347 85.2686 16.4293 85.6313 16.136C85.9939 15.8373 86.4286 15.688 86.9353 15.688C87.1113 15.688 87.2766 15.7093 87.4313 15.752C87.5859 15.7893 87.7246 15.848 87.8473 15.928L87.7273 17.224C87.7059 17.3147 87.6713 17.3787 87.6233 17.416C87.5806 17.448 87.5219 17.464 87.4473 17.464C87.3673 17.464 87.2526 17.4507 87.1033 17.424C86.9539 17.392 86.7966 17.376 86.6313 17.376C86.3913 17.376 86.1779 17.4107 85.9913 17.48C85.8099 17.5493 85.6446 17.6507 85.4953 17.784C85.3513 17.9173 85.2233 18.08 85.1113 18.272C84.9993 18.464 84.8953 18.6827 84.7993 18.928V24H83.0793V15.84H84.0793C84.2606 15.84 84.3859 15.8747 84.4553 15.944C84.5246 16.008 84.5726 16.1227 84.5993 16.288L84.7033 17.352ZM94.4723 17.44C94.4189 17.5093 94.3683 17.5627 94.3203 17.6C94.2723 17.6373 94.2029 17.656 94.1123 17.656C94.0216 17.656 93.9256 17.624 93.8243 17.56C93.7283 17.496 93.6109 17.4267 93.4723 17.352C93.3389 17.272 93.1763 17.2 92.9843 17.136C92.7923 17.072 92.5523 17.04 92.2643 17.04C91.8909 17.04 91.5629 17.1067 91.2803 17.24C91.0029 17.3733 90.7683 17.5653 90.5763 17.816C90.3896 18.0613 90.2483 18.3627 90.1523 18.72C90.0616 19.072 90.0163 19.4693 90.0163 19.912C90.0163 20.3707 90.0669 20.7787 90.1683 21.136C90.2696 21.4933 90.4136 21.7947 90.6003 22.04C90.7923 22.2853 91.0216 22.472 91.2883 22.6C91.5603 22.728 91.8643 22.792 92.2003 22.792C92.5309 22.792 92.8003 22.752 93.0083 22.672C93.2163 22.592 93.3896 22.504 93.5283 22.408C93.6669 22.312 93.7843 22.224 93.8803 22.144C93.9816 22.064 94.0883 22.024 94.2003 22.024C94.3389 22.024 94.4456 22.0773 94.5203 22.184L95.0083 22.816C94.8109 23.056 94.5923 23.2587 94.3523 23.424C94.1123 23.5893 93.8589 23.7253 93.5923 23.832C93.3256 23.9333 93.0483 24.0053 92.7603 24.048C92.4723 24.096 92.1816 24.12 91.8883 24.12C91.3816 24.12 90.9069 24.0267 90.4643 23.84C90.0269 23.648 89.6429 23.3733 89.3123 23.016C88.9869 22.6533 88.7283 22.2133 88.5363 21.696C88.3496 21.1733 88.2563 20.5787 88.2563 19.912C88.2563 19.3093 88.3416 18.752 88.5123 18.24C88.6829 17.7227 88.9309 17.2773 89.2563 16.904C89.5869 16.5307 89.9949 16.24 90.4803 16.032C90.9656 15.8187 91.5256 15.712 92.1603 15.712C92.7523 15.712 93.2723 15.808 93.7203 16C94.1736 16.192 94.5763 16.464 94.9283 16.816L94.4723 17.44ZM98.1118 16.808C98.4478 16.4773 98.8158 16.2133 99.2158 16.016C99.6158 15.8133 100.082 15.712 100.616 15.712C101.064 15.712 101.456 15.7867 101.792 15.936C102.133 16.0853 102.418 16.296 102.648 16.568C102.882 16.84 103.058 17.168 103.176 17.552C103.293 17.9307 103.352 18.3493 103.352 18.808V24H101.64V18.808C101.64 18.2587 101.512 17.832 101.256 17.528C101.005 17.224 100.621 17.072 100.104 17.072C99.7198 17.072 99.3624 17.16 99.0318 17.336C98.7064 17.512 98.3998 17.752 98.1118 18.056V24H96.3918V12.16H98.1118V16.808Z" fill="white"/>
<rect x="129" width="98" height="36" rx="18" fill="black"/>
<path d="M148.912 22.488C149.355 22.488 149.749 22.4133 150.096 22.264C150.448 22.1147 150.744 21.9067 150.984 21.64C151.229 21.3733 151.416 21.0533 151.544 20.68C151.672 20.3013 151.736 19.8827 151.736 19.424V12.48H153.6V19.424C153.6 20.1013 153.491 20.728 153.272 21.304C153.059 21.88 152.749 22.3787 152.344 22.8C151.939 23.216 151.445 23.544 150.864 23.784C150.288 24.0187 149.637 24.136 148.912 24.136C148.187 24.136 147.533 24.0187 146.952 23.784C146.376 23.544 145.885 23.216 145.48 22.8C145.075 22.3787 144.763 21.88 144.544 21.304C144.331 20.728 144.224 20.1013 144.224 19.424V12.48H146.096V19.416C146.096 19.8747 146.16 20.2933 146.288 20.672C146.416 21.0453 146.6 21.368 146.84 21.64C147.08 21.9067 147.373 22.1147 147.72 22.264C148.072 22.4133 148.469 22.488 148.912 22.488ZM158.076 24H156.196V12.48H158.076V24ZM174.902 18.24C174.902 19.0933 174.763 19.8747 174.486 20.584C174.209 21.288 173.817 21.8933 173.31 22.4C172.809 22.9067 172.203 23.3013 171.494 23.584C170.79 23.8613 170.006 24 169.142 24H164.79V12.48H169.142C170.006 12.48 170.79 12.6213 171.494 12.904C172.203 13.1813 172.809 13.5733 173.31 14.08C173.817 14.5867 174.209 15.1947 174.486 15.904C174.763 16.608 174.902 17.3867 174.902 18.24ZM172.99 18.24C172.99 17.5787 172.899 16.984 172.718 16.456C172.542 15.928 172.286 15.4827 171.95 15.12C171.619 14.7573 171.217 14.48 170.742 14.288C170.267 14.0907 169.734 13.992 169.142 13.992H166.67V22.488H169.142C169.734 22.488 170.267 22.392 170.742 22.2C171.217 22.008 171.619 21.7307 171.95 21.368C172.286 21 172.542 20.5547 172.718 20.032C172.899 19.504 172.99 18.9067 172.99 18.24ZM181.884 19C181.884 18.712 181.842 18.4453 181.756 18.2C181.676 17.9493 181.556 17.7333 181.396 17.552C181.236 17.3653 181.036 17.2213 180.796 17.12C180.562 17.0133 180.29 16.96 179.98 16.96C179.356 16.96 178.866 17.1387 178.508 17.496C178.151 17.8533 177.924 18.3547 177.828 19H181.884ZM177.78 20.056C177.802 20.52 177.874 20.9227 177.996 21.264C178.119 21.6 178.282 21.88 178.484 22.104C178.692 22.328 178.938 22.496 179.22 22.608C179.508 22.7147 179.828 22.768 180.18 22.768C180.516 22.768 180.807 22.7307 181.052 22.656C181.298 22.576 181.511 22.4907 181.692 22.4C181.874 22.304 182.028 22.2187 182.156 22.144C182.284 22.064 182.402 22.024 182.508 22.024C182.647 22.024 182.754 22.0773 182.828 22.184L183.316 22.816C183.114 23.056 182.884 23.2587 182.628 23.424C182.372 23.5893 182.1 23.7253 181.812 23.832C181.524 23.9333 181.228 24.0053 180.924 24.048C180.62 24.096 180.324 24.12 180.036 24.12C179.471 24.12 178.946 24.0267 178.46 23.84C177.98 23.648 177.562 23.368 177.204 23C176.852 22.632 176.575 22.176 176.372 21.632C176.175 21.088 176.076 20.4613 176.076 19.752C176.076 19.1867 176.164 18.6587 176.34 18.168C176.522 17.6773 176.778 17.2507 177.108 16.888C177.444 16.5253 177.85 16.24 178.324 16.032C178.804 15.8187 179.346 15.712 179.948 15.712C180.45 15.712 180.914 15.7947 181.34 15.96C181.767 16.12 182.135 16.3573 182.444 16.672C182.754 16.9867 182.994 17.3733 183.164 17.832C183.34 18.2853 183.428 18.8027 183.428 19.384C183.428 19.6507 183.399 19.8293 183.34 19.92C183.282 20.0107 183.175 20.056 183.02 20.056H177.78ZM189.904 17.32C189.862 17.3947 189.814 17.448 189.76 17.48C189.707 17.512 189.64 17.528 189.56 17.528C189.47 17.528 189.371 17.5013 189.264 17.448C189.158 17.3893 189.032 17.3253 188.888 17.256C188.744 17.1867 188.574 17.1253 188.376 17.072C188.184 17.0133 187.958 16.984 187.696 16.984C187.483 16.984 187.288 17.0107 187.112 17.064C186.942 17.112 186.795 17.184 186.672 17.28C186.555 17.3707 186.464 17.48 186.4 17.608C186.336 17.7307 186.304 17.864 186.304 18.008C186.304 18.2 186.363 18.36 186.48 18.488C186.598 18.616 186.752 18.728 186.944 18.824C187.136 18.9147 187.355 18.9973 187.6 19.072C187.846 19.1467 188.096 19.2267 188.352 19.312C188.608 19.3973 188.859 19.496 189.104 19.608C189.35 19.72 189.568 19.8587 189.76 20.024C189.952 20.184 190.107 20.3813 190.224 20.616C190.342 20.8453 190.4 21.1253 190.4 21.456C190.4 21.84 190.331 22.1947 190.192 22.52C190.054 22.8453 189.851 23.128 189.584 23.368C189.318 23.608 188.984 23.7947 188.584 23.928C188.19 24.0613 187.736 24.128 187.224 24.128C186.942 24.128 186.667 24.1013 186.4 24.048C186.139 24 185.888 23.9333 185.648 23.848C185.414 23.7573 185.192 23.6507 184.984 23.528C184.782 23.4053 184.6 23.272 184.44 23.128L184.84 22.472C184.888 22.392 184.947 22.3307 185.016 22.288C185.091 22.24 185.182 22.216 185.288 22.216C185.4 22.216 185.51 22.2533 185.616 22.328C185.728 22.3973 185.856 22.4747 186 22.56C186.15 22.6453 186.328 22.7253 186.536 22.8C186.744 22.8693 187.003 22.904 187.312 22.904C187.568 22.904 187.79 22.8747 187.976 22.816C188.163 22.752 188.318 22.6667 188.44 22.56C188.563 22.4533 188.654 22.3333 188.712 22.2C188.771 22.0613 188.8 21.9147 188.8 21.76C188.8 21.552 188.742 21.3813 188.624 21.248C188.507 21.1147 188.35 21 188.152 20.904C187.96 20.808 187.739 20.7227 187.488 20.648C187.243 20.5733 186.992 20.4933 186.736 20.408C186.48 20.3227 186.227 20.224 185.976 20.112C185.731 20 185.51 19.8587 185.312 19.688C185.12 19.512 184.966 19.3013 184.848 19.056C184.731 18.8053 184.672 18.5013 184.672 18.144C184.672 17.8187 184.736 17.5093 184.864 17.216C184.998 16.9227 185.19 16.664 185.44 16.44C185.696 16.216 186.008 16.04 186.376 15.912C186.75 15.7787 187.179 15.712 187.664 15.712C188.214 15.712 188.712 15.8 189.16 15.976C189.608 16.152 189.984 16.392 190.288 16.696L189.904 17.32ZM193.809 15.84V24H192.089V15.84H193.809ZM194.097 13.376C194.097 13.5307 194.065 13.6773 194.001 13.816C193.942 13.9547 193.859 14.0773 193.753 14.184C193.646 14.2853 193.521 14.368 193.377 14.432C193.238 14.4907 193.089 14.52 192.929 14.52C192.774 14.52 192.627 14.4907 192.489 14.432C192.355 14.368 192.238 14.2853 192.137 14.184C192.035 14.0773 191.953 13.9547 191.889 13.816C191.83 13.6773 191.801 13.5307 191.801 13.376C191.801 13.216 191.83 13.0667 191.889 12.928C191.953 12.7893 192.035 12.6693 192.137 12.568C192.238 12.4613 192.355 12.3787 192.489 12.32C192.627 12.256 192.774 12.224 192.929 12.224C193.089 12.224 193.238 12.256 193.377 12.32C193.521 12.3787 193.646 12.4613 193.753 12.568C193.859 12.6693 193.942 12.7893 194.001 12.928C194.065 13.0667 194.097 13.216 194.097 13.376ZM198.882 19.848C199.415 19.848 199.815 19.712 200.082 19.44C200.349 19.168 200.482 18.8133 200.482 18.376C200.482 17.928 200.349 17.5733 200.082 17.312C199.815 17.0507 199.415 16.92 198.882 16.92C198.354 16.92 197.954 17.0507 197.682 17.312C197.415 17.5733 197.282 17.928 197.282 18.376C197.282 18.5893 197.317 18.7867 197.386 18.968C197.455 19.1493 197.557 19.3067 197.69 19.44C197.823 19.568 197.989 19.6693 198.186 19.744C198.389 19.8133 198.621 19.848 198.882 19.848ZM201.274 24.4C201.274 24.2187 201.221 24.0747 201.114 23.968C201.013 23.856 200.874 23.7707 200.698 23.712C200.522 23.648 200.317 23.6027 200.082 23.576C199.847 23.544 199.597 23.5227 199.33 23.512C199.069 23.496 198.799 23.4827 198.522 23.472C198.25 23.456 197.986 23.4293 197.73 23.392C197.474 23.5253 197.263 23.6853 197.098 23.872C196.938 24.0587 196.858 24.2747 196.858 24.52C196.858 24.68 196.898 24.8293 196.978 24.968C197.063 25.1067 197.191 25.2267 197.362 25.328C197.538 25.4293 197.759 25.5093 198.026 25.568C198.298 25.6267 198.623 25.656 199.002 25.656C199.759 25.656 200.327 25.5387 200.706 25.304C201.085 25.0693 201.274 24.768 201.274 24.4ZM203.002 16.136V16.776C203.002 16.9893 202.874 17.12 202.618 17.168L201.802 17.304C201.941 17.6133 202.01 17.9573 202.01 18.336C202.01 18.736 201.93 19.0987 201.77 19.424C201.615 19.7493 201.399 20.0267 201.122 20.256C200.845 20.4853 200.514 20.6613 200.13 20.784C199.746 20.9067 199.33 20.968 198.882 20.968C198.711 20.968 198.543 20.96 198.378 20.944C198.218 20.9227 198.061 20.896 197.906 20.864C197.751 20.9547 197.637 21.0507 197.562 21.152C197.487 21.2533 197.45 21.3573 197.45 21.464C197.45 21.64 197.527 21.7707 197.682 21.856C197.837 21.9413 198.039 22.0027 198.29 22.04C198.546 22.0773 198.837 22.1013 199.162 22.112C199.487 22.1227 199.818 22.1413 200.154 22.168C200.49 22.1947 200.821 22.24 201.146 22.304C201.471 22.3627 201.759 22.464 202.01 22.608C202.266 22.7467 202.471 22.936 202.626 23.176C202.781 23.416 202.858 23.728 202.858 24.112C202.858 24.464 202.77 24.808 202.594 25.144C202.418 25.48 202.162 25.7787 201.826 26.04C201.495 26.3013 201.09 26.5093 200.61 26.664C200.13 26.824 199.583 26.904 198.97 26.904C198.362 26.904 197.831 26.8453 197.378 26.728C196.93 26.6107 196.554 26.4507 196.25 26.248C195.951 26.0507 195.727 25.8213 195.578 25.56C195.434 25.2987 195.362 25.0267 195.362 24.744C195.362 24.36 195.482 24.032 195.722 23.76C195.967 23.488 196.298 23.2747 196.714 23.12C196.49 23.0133 196.309 22.8667 196.17 22.68C196.037 22.4933 195.97 22.248 195.97 21.944C195.97 21.704 196.058 21.4533 196.234 21.192C196.41 20.9307 196.674 20.7093 197.026 20.528C196.621 20.304 196.301 20.008 196.066 19.64C195.831 19.2667 195.714 18.832 195.714 18.336C195.714 17.9307 195.791 17.5653 195.946 17.24C196.106 16.9147 196.327 16.6373 196.61 16.408C196.893 16.1787 197.226 16.0027 197.61 15.88C197.999 15.7573 198.423 15.696 198.882 15.696C199.586 15.696 200.199 15.8427 200.722 16.136H203.002ZM205.969 16.92C206.145 16.7387 206.326 16.576 206.513 16.432C206.705 16.2827 206.907 16.1547 207.121 16.048C207.334 15.9413 207.561 15.8587 207.801 15.8C208.041 15.7413 208.302 15.712 208.585 15.712C209.033 15.712 209.425 15.7867 209.761 15.936C210.102 16.0853 210.387 16.296 210.617 16.568C210.851 16.84 211.027 17.168 211.145 17.552C211.262 17.9307 211.321 18.3493 211.321 18.808V24H209.609V18.808C209.609 18.2587 209.481 17.832 209.225 17.528C208.974 17.224 208.59 17.072 208.073 17.072C207.689 17.072 207.331 17.16 207.001 17.336C206.675 17.512 206.369 17.752 206.081 18.056V24H204.361V15.84H205.401C205.635 15.84 205.785 15.9493 205.849 16.168L205.969 16.92Z" fill="white"/>
<rect x="237" width="88" height="36" rx="18" fill="black"/>
<path d="M260.368 21.432C260.469 21.432 260.557 21.472 260.632 21.552L261.376 22.36C260.907 22.9253 260.331 23.3627 259.648 23.672C258.965 23.976 258.149 24.128 257.2 24.128C256.357 24.128 255.595 23.984 254.912 23.696C254.235 23.4027 253.656 22.9973 253.176 22.48C252.696 21.9573 252.325 21.336 252.064 20.616C251.808 19.896 251.68 19.104 251.68 18.24C251.68 17.376 251.816 16.584 252.088 15.864C252.365 15.1387 252.752 14.5173 253.248 14C253.749 13.4773 254.347 13.072 255.04 12.784C255.739 12.496 256.507 12.352 257.344 12.352C258.176 12.352 258.909 12.488 259.544 12.76C260.184 13.0267 260.739 13.384 261.208 13.832L260.592 14.704C260.549 14.7627 260.499 14.8133 260.44 14.856C260.381 14.8987 260.301 14.92 260.2 14.92C260.093 14.92 259.971 14.872 259.832 14.776C259.699 14.6747 259.525 14.5653 259.312 14.448C259.104 14.3253 258.84 14.216 258.52 14.12C258.205 14.0187 257.811 13.968 257.336 13.968C256.787 13.968 256.283 14.064 255.824 14.256C255.365 14.448 254.971 14.728 254.64 15.096C254.309 15.464 254.051 15.912 253.864 16.44C253.683 16.968 253.592 17.568 253.592 18.24C253.592 18.9173 253.688 19.5227 253.88 20.056C254.072 20.584 254.336 21.032 254.672 21.4C255.008 21.7627 255.403 22.04 255.856 22.232C256.309 22.424 256.797 22.52 257.32 22.52C257.64 22.52 257.925 22.504 258.176 22.472C258.432 22.4347 258.667 22.3787 258.88 22.304C259.093 22.224 259.293 22.1253 259.48 22.008C259.672 21.8907 259.861 21.7467 260.048 21.576C260.155 21.48 260.261 21.432 260.368 21.432ZM266.029 15.712C266.632 15.712 267.176 15.8107 267.661 16.008C268.152 16.2053 268.568 16.4853 268.909 16.848C269.256 17.2107 269.522 17.6507 269.709 18.168C269.896 18.6853 269.989 19.2667 269.989 19.912C269.989 20.5573 269.896 21.1387 269.709 21.656C269.522 22.1733 269.256 22.616 268.909 22.984C268.568 23.3467 268.152 23.6267 267.661 23.824C267.176 24.0213 266.632 24.12 266.029 24.12C265.421 24.12 264.872 24.0213 264.381 23.824C263.896 23.6267 263.48 23.3467 263.133 22.984C262.786 22.616 262.52 22.1733 262.333 21.656C262.146 21.1387 262.053 20.5573 262.053 19.912C262.053 19.2667 262.146 18.6853 262.333 18.168C262.52 17.6507 262.786 17.2107 263.133 16.848C263.48 16.4853 263.896 16.2053 264.381 16.008C264.872 15.8107 265.421 15.712 266.029 15.712ZM266.029 22.776C266.765 22.776 267.312 22.5307 267.669 22.04C268.032 21.544 268.213 20.8373 268.213 19.92C268.213 19.0027 268.032 18.296 267.669 17.8C267.312 17.2987 266.765 17.048 266.029 17.048C265.282 17.048 264.728 17.2987 264.365 17.8C264.002 18.296 263.821 19.0027 263.821 19.92C263.821 20.8373 264.002 21.544 264.365 22.04C264.728 22.5307 265.282 22.776 266.029 22.776ZM273.25 16.92C273.426 16.7387 273.607 16.576 273.794 16.432C273.986 16.2827 274.188 16.1547 274.402 16.048C274.615 15.9413 274.842 15.8587 275.082 15.8C275.322 15.7413 275.583 15.712 275.866 15.712C276.314 15.712 276.706 15.7867 277.042 15.936C277.383 16.0853 277.668 16.296 277.898 16.568C278.132 16.84 278.308 17.168 278.426 17.552C278.543 17.9307 278.602 18.3493 278.602 18.808V24H276.89V18.808C276.89 18.2587 276.762 17.832 276.506 17.528C276.255 17.224 275.871 17.072 275.354 17.072C274.97 17.072 274.612 17.16 274.282 17.336C273.956 17.512 273.65 17.752 273.362 18.056V24H271.642V15.84H272.682C272.916 15.84 273.066 15.9493 273.13 16.168L273.25 16.92ZM286.379 17.44C286.325 17.5093 286.275 17.5627 286.227 17.6C286.179 17.6373 286.109 17.656 286.019 17.656C285.928 17.656 285.832 17.624 285.731 17.56C285.635 17.496 285.517 17.4267 285.379 17.352C285.245 17.272 285.083 17.2 284.891 17.136C284.699 17.072 284.459 17.04 284.171 17.04C283.797 17.04 283.469 17.1067 283.187 17.24C282.909 17.3733 282.675 17.5653 282.483 17.816C282.296 18.0613 282.155 18.3627 282.059 18.72C281.968 19.072 281.923 19.4693 281.923 19.912C281.923 20.3707 281.973 20.7787 282.075 21.136C282.176 21.4933 282.32 21.7947 282.507 22.04C282.699 22.2853 282.928 22.472 283.195 22.6C283.467 22.728 283.771 22.792 284.107 22.792C284.437 22.792 284.707 22.752 284.915 22.672C285.123 22.592 285.296 22.504 285.435 22.408C285.573 22.312 285.691 22.224 285.787 22.144C285.888 22.064 285.995 22.024 286.107 22.024C286.245 22.024 286.352 22.0773 286.427 22.184L286.915 22.816C286.717 23.056 286.499 23.2587 286.259 23.424C286.019 23.5893 285.765 23.7253 285.499 23.832C285.232 23.9333 284.955 24.0053 284.667 24.048C284.379 24.096 284.088 24.12 283.795 24.12C283.288 24.12 282.813 24.0267 282.371 23.84C281.933 23.648 281.549 23.3733 281.219 23.016C280.893 22.6533 280.635 22.2133 280.443 21.696C280.256 21.1733 280.163 20.5787 280.163 19.912C280.163 19.3093 280.248 18.752 280.419 18.24C280.589 17.7227 280.837 17.2773 281.163 16.904C281.493 16.5307 281.901 16.24 282.387 16.032C282.872 15.8187 283.432 15.712 284.067 15.712C284.659 15.712 285.179 15.808 285.627 16C286.08 16.192 286.483 16.464 286.835 16.816L286.379 17.44ZM293.509 19C293.509 18.712 293.467 18.4453 293.381 18.2C293.301 17.9493 293.181 17.7333 293.021 17.552C292.861 17.3653 292.661 17.2213 292.421 17.12C292.187 17.0133 291.915 16.96 291.605 16.96C290.981 16.96 290.491 17.1387 290.133 17.496C289.776 17.8533 289.549 18.3547 289.453 19H293.509ZM289.405 20.056C289.427 20.52 289.499 20.9227 289.621 21.264C289.744 21.6 289.907 21.88 290.109 22.104C290.317 22.328 290.563 22.496 290.845 22.608C291.133 22.7147 291.453 22.768 291.805 22.768C292.141 22.768 292.432 22.7307 292.677 22.656C292.923 22.576 293.136 22.4907 293.317 22.4C293.499 22.304 293.653 22.2187 293.781 22.144C293.909 22.064 294.027 22.024 294.133 22.024C294.272 22.024 294.379 22.0773 294.453 22.184L294.941 22.816C294.739 23.056 294.509 23.2587 294.253 23.424C293.997 23.5893 293.725 23.7253 293.437 23.832C293.149 23.9333 292.853 24.0053 292.549 24.048C292.245 24.096 291.949 24.12 291.661 24.12C291.096 24.12 290.571 24.0267 290.085 23.84C289.605 23.648 289.187 23.368 288.829 23C288.477 22.632 288.2 22.176 287.997 21.632C287.8 21.088 287.701 20.4613 287.701 19.752C287.701 19.1867 287.789 18.6587 287.965 18.168C288.147 17.6773 288.403 17.2507 288.733 16.888C289.069 16.5253 289.475 16.24 289.949 16.032C290.429 15.8187 290.971 15.712 291.573 15.712C292.075 15.712 292.539 15.7947 292.965 15.96C293.392 16.12 293.76 16.3573 294.069 16.672C294.379 16.9867 294.619 17.3733 294.789 17.832C294.965 18.2853 295.053 18.8027 295.053 19.384C295.053 19.6507 295.024 19.8293 294.965 19.92C294.907 20.0107 294.8 20.056 294.645 20.056H289.405ZM298.377 21.952C298.617 22.2613 298.879 22.48 299.161 22.608C299.449 22.7307 299.767 22.792 300.113 22.792C300.785 22.792 301.308 22.5467 301.681 22.056C302.06 21.5653 302.249 20.8347 302.249 19.864C302.249 19.3627 302.207 18.936 302.121 18.584C302.036 18.2267 301.913 17.936 301.753 17.712C301.593 17.488 301.399 17.3253 301.169 17.224C300.94 17.1227 300.681 17.072 300.393 17.072C299.956 17.072 299.577 17.168 299.257 17.36C298.943 17.5467 298.649 17.816 298.377 18.168V21.952ZM298.289 17.024C298.631 16.624 299.017 16.3013 299.449 16.056C299.887 15.8107 300.393 15.688 300.969 15.688C301.428 15.688 301.844 15.7813 302.217 15.968C302.591 16.1493 302.911 16.416 303.177 16.768C303.444 17.12 303.649 17.5573 303.793 18.08C303.943 18.5973 304.017 19.192 304.017 19.864C304.017 20.4667 303.935 21.0293 303.769 21.552C303.609 22.0693 303.377 22.52 303.073 22.904C302.769 23.2827 302.401 23.5813 301.969 23.8C301.537 24.0133 301.049 24.12 300.505 24.12C300.025 24.12 299.617 24.0427 299.281 23.888C298.951 23.7333 298.649 23.52 298.377 23.248V26.712H296.657V15.84H297.697C297.932 15.84 298.081 15.9493 298.145 16.168L298.289 17.024ZM308.195 24.128C307.518 24.128 306.995 23.9387 306.627 23.56C306.265 23.176 306.083 22.6373 306.083 21.944V17.192H305.187C305.091 17.192 305.009 17.1627 304.939 17.104C304.87 17.04 304.835 16.9467 304.835 16.824V16.128L306.155 15.936L306.531 13.576C306.558 13.4853 306.603 13.4133 306.667 13.36C306.731 13.3013 306.817 13.272 306.923 13.272H307.803V15.952H310.067V17.192H307.803V21.824C307.803 22.1173 307.875 22.3413 308.019 22.496C308.163 22.6507 308.355 22.728 308.595 22.728C308.729 22.728 308.843 22.712 308.939 22.68C309.035 22.6427 309.118 22.6053 309.187 22.568C309.257 22.5253 309.315 22.488 309.363 22.456C309.417 22.4187 309.467 22.4 309.515 22.4C309.611 22.4 309.689 22.4533 309.747 22.56L310.259 23.4C309.993 23.6347 309.678 23.816 309.315 23.944C308.953 24.0667 308.579 24.128 308.195 24.128Z" fill="white"/>
</svg>
